<?xml version="1.0" standalone="no"?>
<!DOCTYPE svg PUBLIC "-//W3C//DTD SVG 20010904//EN"
 "http://www.w3.org/TR/2001/REC-SVG-20010904/DTD/svg10.dtd">
<svg version="1.0" xmlns="http://www.w3.org/2000/svg"
 width="512.000000pt" height="512.000000pt" viewBox="0 0 512.000000 512.000000"
 preserveAspectRatio="xMidYMid meet">

<g transform="translate(0.000000,512.000000) scale(0.100000,-0.100000)"
fill="#000000" stroke="none">
<path d="M2310 5004 c-575 -67 -1090 -313 -1487 -712 -329 -331 -557 -743
-658 -1192 -77 -338 -77 -742 0 -1080 162 -719 650 -1337 1310 -1660 173 -84
293 -129 466 -174 248 -64 304 -71 619 -71 312 1 392 10 636 74 672 177 1257
658 1564 1286 153 312 229 600 249 938 31 544 -107 1056 -404 1502 -384 576
-962 950 -1659 1071 -87 16 -547 28 -636 18z m462 -341 c54 -54 98 -102 98
-108 0 -13 -192 -205 -205 -205 -5 0 -56 46 -112 102 l-103 103 102 102 c57
57 107 103 113 103 5 0 54 -44 107 -97z m1036 -218 c166 -70 286 -411 333
-954 l11 -134 44 -62 c100 -142 146 -291 147 -470 1 -155 -41 -241 -163 -333
-30 -23 -79 -52 -107 -64 -46 -20 -53 -27 -59 -58 -16 -94 -53 -144 -128 -171
-32 -12 -36 -18 -47 -68 -6 -31 -24 -92 -40 -136 l-28 -80 11 -170 c13 -225 5
-435 -22 -545 -50 -199 -156 -351 -291 -417 -158 -77 -357 -71 -492 14 -23 14
-82 59 -130 100 -48 40 -111 85 -140 101 -48 25 -61 27 -157 26 -174 -1 -242
-39 -379 -214 -179 -227 -401 -291 -626 -180 -124 60 -202 146 -275 303 -71
150 -124 344 -155 567 -9 63 -18 129 -21 147 -3 22 -18 42 -50 68 -103 85
-212 253 -254 393 -12 40 -21 74 -19 76 2 1 26 11 54 21 101 37 175 145 175
255 0 108 -74 217 -173 255 -53 20 -54 28 -11 97 52 82 144 151 254 189 85 30
221 32 298 6 105 -37 216 -145 281 -274 42 -83 21 -235 -45 -325 -65 -90 -204
-141 -322 -119 -64 13 -87 24 -130 64 -34 33 -62 105 -62 162 0 52 28 129 57
157 34 33 92 58 133 58 16 0 30 5 30 10 0 15 -51 12 -101 -5 -92 -33 -133
-101 -133 -220 0 -92 20 -142 78 -192 49 -44 98 -58 196 -57 71 0 95 5 148 29
116 52 182 154 190 292 l4 81 35 7 c19 3 40 8 47 11 8 3 17 -11 25 -38 7 -24
24 -64 37 -91 l24 -47 35 14 c73 31 131 91 180 186 31 61 45 130 60 310 22
263 55 350 180 469 87 82 165 123 247 129 122 9 188 -28 300 -170 120 -151
192 -201 283 -202 110 -1 170 68 200 224 42 224 63 270 135 291 44 13 127 1
214 -32 79 -30 30 3 -89 61 -111 54 -229 93 -332 111 -37 7 -69 14 -71 15 -8
6 84 182 137 262 62 92 176 208 233 238 85 44 173 55 236 29z m-1540 -167
c105 -43 171 -89 268 -183 86 -84 179 -208 169 -225 -2 -4 -30 -17 -62 -29
-167 -62 -355 -185 -503 -331 -117 -114 -192 -213 -259 -339 l-49 -94 -10 39
c-35 134 -69 358 -82 541 -17 237 12 434 77 531 62 91 141 124 288 119 80 -3
113 -8 163 -29z m-1208 -643 l105 -105 -106 -106 -105 -105 -107 108 -106 108
102 103 c56 56 104 102 107 102 3 0 52 -47 110 -105z m3690 -930 l105 -105
-108 -108 -107 -107 -107 107 -108 108 105 105 c58 58 107 105 110 105 3 0 52
-47 110 -105z m-3790 -1310 l105 -105 -105 -105 -105 -105 -107 107 -108 108
102 102 c57 57 105 103 108 103 3 0 52 -47 110 -105z m3352 -92 c54 -54 98
-102 98 -108 0 -6 -46 -56 -103 -113 l-102 -102 -103 103 c-56 56 -102 107
-102 112 0 13 192 205 205 205 5 0 54 -44 107 -97z"/>
<path d="M3655 3530 c-43 -21 -98 -91 -59 -76 65 27 155 33 244 16 29 -6 55
-8 57 -6 11 10 -26 48 -63 66 -53 26 -127 26 -179 0z"/>
<path d="M2567 3426 c-48 -18 -83 -49 -96 -87 -11 -32 -5 -36 25 -15 35 25
131 47 209 49 l74 2 -29 29 c-24 25 -39 30 -87 33 -34 2 -74 -3 -96 -11z"/>
<path d="M3714 3294 c-78 -26 -110 -104 -75 -177 24 -50 65 -77 116 -77 125 0
181 148 87 233 -31 28 -83 36 -128 21z"/>
<path d="M2683 3156 c-97 -44 -95 -189 3 -237 138 -66 256 108 145 215 -35 34
-100 44 -148 22z"/>
<path d="M4063 2952 c-57 -14 -103 -30 -103 -35 0 -9 106 -4 193 10 41 6 59
29 36 44 -8 5 -16 8 -19 8 -3 -1 -51 -13 -107 -27z"/>
<path d="M3670 2945 c0 -3 10 -19 21 -35 43 -57 0 -137 -84 -158 -79 -20 -158
14 -219 96 -17 23 -38 42 -45 42 -7 0 -22 -20 -34 -44 -43 -93 -146 -166 -233
-166 -41 0 -53 5 -82 34 -19 19 -34 41 -34 50 0 26 27 73 52 90 29 21 15 33
-15 13 -27 -18 -57 -74 -57 -107 0 -13 17 -39 39 -61 36 -36 43 -39 95 -39 96
0 203 74 253 173 l19 39 19 -28 c85 -130 243 -158 335 -59 32 34 35 112 6 144
-18 20 -36 28 -36 16z"/>
<path d="M3986 2842 c-8 -13 4 -16 123 -38 75 -13 95 -14 101 -4 16 26 -1 40
-50 40 -26 0 -74 3 -107 6 -38 4 -63 3 -67 -4z"/>
<path d="M3976 2759 c10 -17 197 -100 212 -94 7 3 12 12 10 22 -2 11 -35 27
-103 50 -105 35 -130 40 -119 22z"/>
<path d="M2336 2731 c-3 -5 0 -13 7 -19 16 -13 280 -19 287 -6 10 18 -283 43
-294 25z"/>
<path d="M2455 2616 c-89 -9 -110 -14 -113 -28 -2 -9 1 -19 7 -22 6 -4 72 5
147 19 76 14 139 25 141 25 1 0 3 5 3 10 0 12 -37 11 -185 -4z"/>
<path d="M2517 2497 c-108 -48 -129 -63 -105 -72 18 -7 218 90 218 105 0 15
-7 13 -113 -33z"/>
<path d="M3195 1111 c-42 -11 -87 -35 -108 -59 -55 -61 -33 -150 49 -198 44
-26 58 -29 139 -29 104 0 155 20 193 75 44 65 18 137 -67 184 -54 29 -151 42
-206 27z"/>
<path d="M1690 991 c-44 -14 -84 -38 -110 -66 -20 -21 -25 -37 -25 -77 0 -47
3 -53 42 -88 53 -47 114 -64 198 -58 110 9 188 70 188 149 0 80 -86 141 -203
146 -36 1 -76 -1 -90 -6z"/>
</g>
</svg>
